<svg width="433" height="514" viewBox="0 0 433 514" fill="none" xmlns="http://www.w3.org/2000/svg">
<g clip-path="url(#clip0)">
<path d="M407.257 106.083C447.864 168.506 434.898 262.077 406.413 338.444C378.048 414.708 334.288 473.713 276.951 499.055C219.739 524.392 149.068 516.028 95.008 485.36C40.8235 454.681 3.24421 401.731 0.216241 351.291C-2.93609 301.007 28.5819 253.35 63.9767 192.139C99.3715 130.928 138.887 56.1397 205.68 34.3229C272.588 12.5061 366.65 43.7957 407.257 106.083Z" fill="#F2F2F2"/>
<path fill-rule="evenodd" clip-rule="evenodd" d="M188.302 107.829L186.68 99.6381C186.222 97.3477 184.873 95.3327 182.931 94.0352C180.989 92.7377 178.611 92.2637 176.32 92.7173L143.699 99.2055C141.408 99.6637 139.393 101.012 138.096 102.954C136.798 104.896 136.324 107.274 136.778 109.565L160.569 228.987C160.795 230.122 161.241 231.201 161.884 232.163C162.527 233.125 163.353 233.951 164.315 234.593C165.277 235.236 166.356 235.683 167.491 235.909C168.626 236.134 169.794 236.134 170.929 235.908L192.428 231.625C195.277 230.896 199.024 229.793 199.024 229.793L188.302 107.829Z" fill="#8B04CB"/>
<path fill-rule="evenodd" clip-rule="evenodd" d="M276.173 486.814L278.795 495.043L300.689 490.015L298.834 480.169L276.173 486.814Z" fill="#E49D75"/>
<path fill-rule="evenodd" clip-rule="evenodd" d="M139.892 415.2L131.863 419.033L142.709 438.336L152.139 432.194L139.892 415.2Z" fill="#E49D75"/>
<path fill-rule="evenodd" clip-rule="evenodd" d="M189.562 213.058C189.562 213.058 211.563 328.814 217.917 344.446C209.487 351.291 139.46 415.346 139.46 415.346L151.355 432.789L252.738 374.746L231.894 201.266L189.562 213.058Z" fill="#8B04CB"/>
<path fill-rule="evenodd" clip-rule="evenodd" d="M203.81 217.427C208.979 230.333 276.113 486.993 276.113 486.993L299.607 480.796L278.952 198.325C278.952 198.325 198.646 204.521 203.81 217.427Z" fill="#8B04CB"/>
<path fill-rule="evenodd" clip-rule="evenodd" d="M215.776 85.1908C267.651 73.8851 286.035 185.413 282.521 199.309C279.006 213.204 196.986 226.884 190.973 218.471C184.961 210.057 160.921 97.1455 215.776 85.1908Z" fill="#FFD98E"/>
<path fill-rule="evenodd" clip-rule="evenodd" d="M201.793 57.2697C205.21 66.0776 206.503 79.292 207.335 92.0468C211.92 96.0371 225.487 94.707 227.385 92.3496C225.865 88.3269 226.244 75.8748 227.082 72.0035C227.92 68.1322 199.884 52.3549 201.793 57.2697Z" fill="#D18C65"/>
<path fill-rule="evenodd" clip-rule="evenodd" d="M285.765 75.5396L302.208 12.3061L309.561 14.2147L293.118 77.4752L285.765 75.5396Z" fill="#DFDFDF"/>
<path d="M290.236 69.5812L294.448 70.6626" stroke="white" stroke-width="1.01" stroke-linecap="square" stroke-linejoin="round"/>
<path d="M292.399 61.2654L296.612 62.3468" stroke="white" stroke-width="1.01" stroke-linecap="square" stroke-linejoin="round"/>
<path d="M294.557 52.9496L298.774 54.031" stroke="white" stroke-width="1.01" stroke-linecap="square" stroke-linejoin="round"/>
<path d="M296.72 44.6338L300.937 45.7152" stroke="white" stroke-width="1.01" stroke-linecap="square" stroke-linejoin="round"/>
<path d="M298.882 36.3181L303.094 37.3994" stroke="white" stroke-width="1.01" stroke-linecap="square" stroke-linejoin="round"/>
<path d="M301.045 28.0023L305.258 29.0836" stroke="white" stroke-width="1.01" stroke-linecap="square" stroke-linejoin="round"/>
<path d="M303.208 19.6865L307.42 20.7678" stroke="white" stroke-width="1.01" stroke-linecap="square" stroke-linejoin="round"/>
<path fill-rule="evenodd" clip-rule="evenodd" d="M310.329 51.5601C314.72 50.0137 317.705 54.0743 318.905 57.6861C320.83 63.4931 319.554 68.7918 317.705 69.5812C316.677 70.0382 315.525 70.1347 314.436 69.855C313.346 69.5753 312.383 68.9358 311.703 68.0402C311.573 69.6245 311.346 70.9437 308.458 72.1981C304.133 74.0743 299.353 68.4133 298.223 65.4936C296.72 61.6547 297.428 55.9234 300.656 54.5393C303.316 53.3984 305.133 54.2203 305.971 55.2692C307.155 53.4038 308.486 52.2089 310.329 51.5601Z" fill="#8B04CB"/>
<path fill-rule="evenodd" clip-rule="evenodd" d="M307.534 39.8812C313.887 40.4219 309.113 50.4733 306.117 52.6144C303.998 50.8247 301.386 39.3567 307.534 39.8812Z" fill="#FD8369"/>
<path fill-rule="evenodd" clip-rule="evenodd" d="M192.909 158.519C192.455 168.073 189.908 193.691 209.081 198.124C227.32 202.347 287.268 161.709 298.034 159.287C308.799 156.865 308.977 160.693 316.791 157.762C332.196 151.977 329.227 145.629 328.01 139.114C321.49 141.233 228.763 163.985 225.633 164.807C224.297 161.841 223.574 158.635 223.508 155.383C223.508 155.383 193.363 148.965 192.909 158.519Z" fill="#E49D75"/>
<path fill-rule="evenodd" clip-rule="evenodd" d="M204.507 105.705C230.331 104.45 232.191 157.438 228.395 160.914C224.6 164.391 188.707 166.927 186.004 162.974C183.3 159.022 181.727 106.813 204.507 105.705Z" fill="#FFE4AD"/>
<path fill-rule="evenodd" clip-rule="evenodd" d="M259.746 136.756C253.636 138.292 249.727 143.677 251.014 148.781C252.3 153.885 258.292 156.8 264.407 155.237L331.012 138.476L326.361 119.995L259.746 136.756Z" fill="#FD8369"/>
<path fill-rule="evenodd" clip-rule="evenodd" d="M258.816 123.499L353.116 99.6597L356.36 112.517L262.06 136.351L258.816 123.499Z" fill="#DFDFDF"/>
<path fill-rule="evenodd" clip-rule="evenodd" d="M256.41 101.476L324.663 84.223L330.103 105.737L261.844 122.99L256.41 101.476Z" fill="#8B04CB"/>
<path fill-rule="evenodd" clip-rule="evenodd" d="M233.354 93.6905L327.67 69.8515L330.914 82.7253L236.614 106.559L233.354 93.6905Z" fill="#FD8369"/>
<path d="M261.26 138.638L264.639 152.263" stroke="#6BD5E1" stroke-width="1.36" stroke-linecap="square" stroke-linejoin="round"/>
<path fill-rule="evenodd" clip-rule="evenodd" d="M263.72 107.819L282.98 102.952L284.516 109.024L265.256 113.891L263.72 107.819Z" fill="#DFDFDF"/>
<path d="M240.129 98.7189L279.006 88.7648" stroke="#FFD98E" stroke-width="2.42" stroke-linecap="round" stroke-linejoin="round"/>
<path fill-rule="evenodd" clip-rule="evenodd" d="M114.338 427.852L145.235 485.052L153.945 480.456L144.24 438.282L131.933 418.86L114.338 427.852Z" fill="#2B2B2B"/>
<path fill-rule="evenodd" clip-rule="evenodd" d="M281.515 514L345.524 502.646L343.902 492.913L300.796 488.863L278.503 494.449L281.515 514Z" fill="#2B2B2B"/>
<path fill-rule="evenodd" clip-rule="evenodd" d="M239.583 17.0641C237.144 3.78483 224.092 -1.92484 212.558 0.567729C192.503 4.89324 182.819 15.707 170.843 17.7238C152.675 20.7624 135.756 13.939 116.685 18.9674C90.8392 25.78 86.9948 44.2337 90.7311 60.7896C96.9546 88.1755 120.513 94.3123 138.178 91.7278C163.916 87.943 164.354 69.7975 180.494 67.0237C188.037 65.7315 192.931 67.386 200.603 65.9424C208.276 64.4987 220.728 54.5501 224.394 50.7598C228.06 46.9696 241.032 24.9474 239.583 17.0641Z" fill="black"/>
<path fill-rule="evenodd" clip-rule="evenodd" d="M198.651 46.5425C195.948 30.5165 203.436 16.3018 215.381 14.7932C227.325 13.2847 239.21 25.0555 241.913 41.0923C244.617 57.1291 237.128 71.333 225.184 72.8415C213.239 74.35 201.355 62.5685 198.651 46.5425Z" fill="#E49D75"/>
<path fill-rule="evenodd" clip-rule="evenodd" d="M234.668 21.0868C236.641 31.5978 206.043 48.5268 196.418 50.6517C186.793 52.7766 183.127 32.9279 183.127 32.9279C183.127 32.9279 215.684 -5.20683 234.668 21.0868Z" fill="black"/>
<path fill-rule="evenodd" clip-rule="evenodd" d="M195.461 54.9231C195.46 53.7859 195.796 52.6739 196.427 51.7279C197.059 50.7819 197.956 50.0444 199.007 49.6087C200.057 49.1731 201.213 49.0588 202.329 49.2804C203.444 49.502 204.469 50.0495 205.273 50.8536C206.077 51.6577 206.625 52.6823 206.846 53.7978C207.068 54.9132 206.954 56.0693 206.518 57.1197C206.082 58.1701 205.345 59.0677 204.399 59.6989C203.453 60.33 202.341 60.6663 201.203 60.6652C199.68 60.6652 198.22 60.0603 197.143 58.9834C196.066 57.9066 195.461 56.446 195.461 54.9231Z" fill="#E49D75"/>
<path d="M184.922 102.893C187.697 100.583 190.981 98.9671 194.504 98.1782" stroke="#6BD5E1" stroke-width="4" stroke-linecap="round" stroke-linejoin="round"/>
<path d="M194.525 98.1782C211.471 94.4583 229.601 111.425 235.014 136.08C237.177 145.851 236.987 155.361 234.943 163.515" stroke="#8B04CB" stroke-width="4" stroke-linecap="round" stroke-linejoin="round"/>
</g>
<defs>
<clipPath id="clip0">
<rect width="433" height="514" fill="white"/>
</clipPath>
</defs>
</svg>
